<svg xmlns="http://www.w3.org/2000/svg" viewBox="0 0 100 100" width="100" height="100">
  <defs>
    <clipPath id="circ"><circle cx="50" cy="50" r="48"/></clipPath>
    <clipPath id="above"><rect x="0" y="0" width="100" height="60"/></clipPath>
  </defs>
  <g clip-path="url(#circ)">
    <rect x="0" y="0" width="100" height="60" fill="#F4EFE6"/>
    <g clip-path="url(#above)">
      <path fill="#FEBD11" d="M50 19 L48.07 45.13 L51.93 45.13 Z M59.20 20.41 L51.32 45.39 L55.00 46.59 Z M67.83 23.55 L54.36 46.13 L57.69 48.05 Z M75.40 28.32 L57.04 47.30 L59.74 50.00 Z M81.46 34.49 L59.10 48.84 L61.02 52.17 Z M85.62 41.74 L60.41 50.69 L61.61 54.36 Z M87.62 49.66 L60.87 52.74 L61.20 56.61 Z M87.31 57.81 L60.50 54.81 L60.17 58.68 Z M84.69 65.74 L59.34 56.74 L58.14 60.41 Z M79.93 73.07 L57.50 58.50 L55.58 61.83 Z M73.34 79.36 L55.13 60.00 L52.43 62.70 Z M65.31 84.18 L52.39 61.20 L49.06 63.12 Z M56.30 87.21 L49.40 62.07 L45.72 63.27 Z M46.85 88.26 L46.13 62.53 L42.26 62.86 Z M37.53 87.27 L42.74 62.55 L38.91 62.22 Z M28.90 84.13 L39.51 62.13 L35.83 60.93 Z M21.46 79.04 L36.62 61.30 L33.29 59.38 Z M15.69 72.43 L34.31 60.04 L31.61 57.34 Z M11.93 64.71 L32.78 58.36 L30.86 55.03 Z M10.31 56.36 L31.95 56.31 L31.62 52.44 Z M10.90 47.86 L31.81 53.96 L32.69 50.19 Z"/>
      <circle cx="50" cy="60" r="15.5" fill="#FEBD11"/>
    </g>
    <rect x="0" y="60" width="100" height="13.4" fill="#ED2024"/>
    <rect x="0" y="73.4" width="100" height="13.3" fill="#FFFFFF"/>
    <rect x="0" y="86.7" width="100" height="13.3" fill="#278E43"/>
    <line x1="0" y1="60" x2="100" y2="60" stroke="#1A1814" stroke-width="0.6" opacity="0.25"/>
  </g>
  <circle cx="50" cy="50" r="48" fill="none" stroke="#1A1814" stroke-width="2.5"/>
</svg>
